<?xml version="1.0" encoding="utf-8"?>
<!-- Generator: Adobe Illustrator 27.3.1, SVG Export Plug-In . SVG Version: 6.00 Build 0)  -->
<svg version="1.1" id="Camada_1" xmlns="http://www.w3.org/2000/svg" xmlns:xlink="http://www.w3.org/1999/xlink" x="0px" y="0px"
	 viewBox="0 0 512 512" style="enable-background:new 0 0 512 512;" xml:space="preserve">
<style type="text/css">
	.st0{fill-rule:evenodd;clip-rule:evenodd;fill:#4482C2;}
	.st1{fill-rule:evenodd;clip-rule:evenodd;fill:#F0D35D;}
	.st2{fill-rule:evenodd;clip-rule:evenodd;fill:#FC5365;}
	.st3{fill-rule:evenodd;clip-rule:evenodd;fill:#64DBB9;}
	.st4{fill-rule:evenodd;clip-rule:evenodd;fill:#FDFDFE;}
	.st5{opacity:0.996;fill-rule:evenodd;clip-rule:evenodd;fill:#547580;enable-background:new    ;}
	.st6{fill-rule:evenodd;clip-rule:evenodd;fill:#EDC21B;}
	.st7{fill-rule:evenodd;clip-rule:evenodd;fill:#EEC31A;}
	.st8{fill-rule:evenodd;clip-rule:evenodd;fill:#8FB9E0;}
	.st9{fill-rule:evenodd;clip-rule:evenodd;fill:#8EB8DE;}
	.st10{fill-rule:evenodd;clip-rule:evenodd;fill:#8FB8DF;}
	.st11{fill-rule:evenodd;clip-rule:evenodd;fill:#8FB9DF;}
	.st12{opacity:0.981;fill-rule:evenodd;clip-rule:evenodd;fill:#4294FF;enable-background:new    ;}
</style>
<g>
	<path class="st0" d="M503.5,110.5c-165.3,0-330.7,0-496,0C7.1,86.8,7.6,63.1,9,39.5C14.6,21.9,26.4,11.4,44.5,8
		c140.7-0.7,281.3-0.7,422,0c18.1,3.4,29.9,13.9,35.5,31.5C503.4,63.1,503.9,86.8,503.5,110.5z"/>
</g>
<g>
	<path class="st1" d="M53.5,42.5C69.2,41,76.7,48,76,63.5c-7.2,14.4-17.2,16.7-30,7C39.3,58.5,41.8,49.2,53.5,42.5z"/>
</g>
<g>
	<path class="st2" d="M122.5,42.5c18.4-0.2,24.9,8.5,19.5,26c-10.8,11.1-20.8,10.5-30-2C108.7,55.4,112.2,47.4,122.5,42.5z"/>
</g>
<g>
	<path class="st3" d="M189.5,42.5c20.5-0.3,27,9,19.5,28c-12.8,9.7-22.8,7.4-30-7C177.7,54,181.2,47,189.5,42.5z"/>
</g>
<g>
	<path class="st4" d="M360.5,42.5c32-0.2,64,0,96,0.5c9.7,3.5,13.5,10.3,11.5,20.5c-1.5,6.8-5.7,11-12.5,12.5c-31,0.7-62,0.7-93,0
		C351,71.4,347.1,63.3,351,51.5C353.4,47.6,356.6,44.6,360.5,42.5z"/>
</g>
<g>
	<path class="st5" d="M7.5,110.5c165.3,0,330.7,0,496,0c0.2,118.7,0,237.3-0.5,356c-4.2,20.2-16.3,32.3-36.5,36.5
		c-140.7,0.7-281.3,0.7-422,0c-20.2-4.2-32.3-16.3-36.5-36.5C7.5,347.8,7.3,229.2,7.5,110.5z"/>
</g>
<g>
	<path class="st6" d="M64.5,170.5c3.1-0.3,6.1,0.2,9,1.5c28.2,17.3,56.5,34.3,85,51c4.3,5.6,3.7,10.6-2,15
		c-28.5,16.7-56.8,33.7-85,51c-9.2,1.5-13-2.3-11.5-11.5c0.5-1.4,1.3-2.6,2.5-3.5c24.5-14.4,48.8-29.1,73-44
		c-23.5-14.6-47.2-28.9-71-43C57.9,181.4,57.9,175.9,64.5,170.5z"/>
</g>
<g>
	<path class="st7" d="M184.5,272.5c36-0.2,72,0,108,0.5c8,5.3,8,10.7,0,16c-36.3,0.7-72.7,0.7-109,0
		C176.7,283,177,277.5,184.5,272.5z"/>
</g>
<g>
	<path class="st8" d="M55.5,349.5c64.7-0.2,129.3,0,194,0.5c6,2.5,7.5,6.7,4.5,12.5c-1.2,1.5-2.7,2.7-4.5,3.5
		c-64.3,0.7-128.7,0.7-193,0C48.9,361,48.5,355.5,55.5,349.5z"/>
</g>
<g>
	<path class="st8" d="M277.5,349.5c22-0.2,44,0,66,0.5c7.9,5.2,7.9,10.6,0,16c-21.7,0.7-43.3,0.7-65,0
		C270.9,360.9,270.6,355.4,277.5,349.5z"/>
</g>
<g>
	<path class="st8" d="M371.5,349.5c27.7-0.2,55.3,0,83,0.5c8,5.3,8,10.7,0,16c-27.7,0.7-55.3,0.7-83,0
		C364.8,360.3,364.8,354.8,371.5,349.5z"/>
</g>
<g>
	<path class="st9" d="M55.5,392.5c19.7-0.2,39.3,0,59,0.5c5.8,6.1,5.1,11.5-2,16c-18.7,0.7-37.3,0.7-56,0
		C48.9,403.8,48.6,398.3,55.5,392.5z"/>
</g>
<g>
	<path class="st9" d="M140.5,392.5c11.3-0.2,22.7,0,34,0.5c5.7,6.1,5,11.4-2,16c-10,0.7-20,0.7-30,0
		C135.3,404.3,134.6,398.8,140.5,392.5z"/>
</g>
<g>
	<path class="st9" d="M200.5,392.5c36.7-0.2,73.3,0,110,0.5c5.6,3.5,6.4,8,2.5,13.5c-1.4,1-2.9,1.8-4.5,2.5
		c-35.7,0.7-71.3,0.7-107,0C194.1,403.7,193.7,398.2,200.5,392.5z"/>
</g>
<g>
	<path class="st9" d="M336.5,392.5c39.7-0.2,79.3,0,119,0.5c5.1,3,6.2,7.1,3.5,12.5c-1.6,1.5-3.4,2.7-5.5,3.5
		c-38.3,0.7-76.7,0.7-115,0C331.4,404.2,330.7,398.7,336.5,392.5z"/>
</g>
<g>
	<path class="st10" d="M56.5,434.5c35.7-0.2,71.3,0,107,0.5c8.4,4.2,9.1,9.6,2,16c-36.7,0.7-73.3,0.7-110,0
		C48.7,445.1,49,439.6,56.5,434.5z"/>
</g>
<g>
	<path class="st11" d="M192.5,434.5c56-0.2,112,0,168,0.5c7.6,4.9,7.9,10.3,1,16c-56.3,0.7-112.7,0.7-169,0
		c-4.6-2.5-6.1-6.4-4.5-11.5C189.4,437.6,190.9,436,192.5,434.5z"/>
</g>
<g>
	<path class="st10" d="M389.5,434.5c21.3-0.2,42.7,0,64,0.5c8.5,4.3,9.1,9.6,2,16c-22.3,0.7-44.7,0.7-67,0
		c-4.6-2.5-6.1-6.4-4.5-11.5C385.7,437.6,387.6,435.9,389.5,434.5z"/>
</g>
<g>
	<path class="st12" d="M237.3,160.7c2.1-0.5,3.6,0.3,4.6,2.1c0.1,3.8,0.1,7.5,0.2,11.3c2.9-2.2,5.8-4.4,8.8-6.5
		c3.5-0.5,5,1.1,4.6,4.6c-0.2,0.7-0.6,1.2-1.2,1.6c-4,3-8.1,6-12.1,9c-0.2,6.5-0.3,12.9-0.1,19.4c5.5-3.3,10.9-6.7,16.4-10
		c0.7-5.4,1.3-10.8,1.9-16.2c1.4-2.1,3.2-2.6,5.4-1.4c0.6,0.4,0.9,0.9,1.2,1.6c0,3.5-0.3,7-0.7,10.4c0.1,0.3,0.1,0.6,0.2,0.9
		c3-1.9,6.2-3.8,9.4-5.4c2.6-0.3,4,0.9,4.3,3.4c0,1.6-0.7,2.7-2.1,3.4c-2.8,1.5-5.4,3.2-8.1,4.9c3.2,1.2,6.4,2.5,9.6,3.8
		c1.8,1.5,2.2,3.3,1,5.4c-0.8,0.8-1.7,1.2-2.8,1.3c-5.1-1.9-10.2-3.9-15.3-6c-5.7,3.2-11.2,6.5-16.7,10c5.5,3.5,11.1,6.8,16.7,10
		c4.7-1.9,9.3-3.7,13.9-5.6c3.5-0.6,5.1,0.8,4.8,4.4c-0.2,0.6-0.6,1.1-1,1.6c-3.3,1.5-6.8,3-10.2,4.3c2.9,1.8,5.8,3.6,8.7,5.3
		c1.9,1.9,2,3.8,0.2,5.7c-0.9,0.6-1.9,0.8-3,0.6c-3.2-1.7-6.3-3.5-9.4-5.4c-0.1,0.3-0.1,0.6-0.2,0.9c0.5,3.5,0.7,6.9,0.7,10.4
		c-1,2-2.6,2.7-4.8,2c-1.1-0.6-1.8-1.5-2-2.7c-0.5-5.1-1-10.2-1.7-15.3c-5.5-3.3-10.9-6.7-16.4-10c-0.2,6.5-0.1,12.9,0.1,19.4
		c4,3,8.1,6,12.1,9c1.4,1.5,1.6,3.1,0.7,5c-1.1,1.2-2.5,1.6-4.1,1.2c-3-2.1-5.9-4.2-8.8-6.5c-0.1,3.8-0.1,7.5-0.2,11.3
		c-0.6,1.5-1.7,2.2-3.3,2.1c-1.6,0.1-2.7-0.6-3.3-2.1c-0.1-3.8-0.1-7.5-0.2-11.3c-2.9,2.2-5.8,4.4-8.8,6.5c-3.5,0.5-5-1.1-4.6-4.6
		c0.2-0.7,0.6-1.2,1.2-1.6c4-3,8.1-6,12.1-9c0.2-6.5,0.3-12.9,0.1-19.4c-5.5,3.3-10.9,6.7-16.4,10c-0.7,5.4-1.3,10.8-1.9,16.2
		c-1.2,2.1-3,2.6-5.2,1.6c-1.4-1.4-1.9-3-1.4-5c0.2-2.4,0.5-4.8,0.7-7.2c-0.1-0.3-0.1-0.6-0.2-0.9c-3,1.9-6.2,3.8-9.4,5.4
		c-2.6,0.3-4-0.9-4.3-3.4c0-1.6,0.7-2.7,2.1-3.4c2.8-1.5,5.4-3.2,8.1-4.9c-3.3-1.2-6.6-2.6-9.8-4c-1.7-1.5-1.9-3.3-0.7-5.2
		c0.8-0.8,1.7-1.2,2.8-1.3c5.1,1.9,10.2,3.9,15.3,6c5.7-3.2,11.2-6.5,16.7-10c-5.5-3.5-11.1-6.8-16.7-10c-5.1,2.1-10.2,4.1-15.3,6
		c-2.9-0.5-4-2.2-3.2-5.1c0.2-0.4,0.5-0.7,0.7-1.1c3.3-1.6,6.7-3.1,10.2-4.4c-2.9-1.8-5.8-3.6-8.7-5.3c-1.9-1.9-2-3.8-0.2-5.7
		c0.9-0.6,1.9-0.8,3-0.6c3.2,1.7,6.3,3.5,9.4,5.4c0.1-0.3,0.1-0.6,0.2-0.9c-0.5-3.5-0.7-6.9-0.7-10.4c1-2.1,2.6-2.8,4.8-2
		c1.1,0.5,1.8,1.4,2,2.7c0.5,5.1,1,10.2,1.7,15.3c5.5,3.3,10.9,6.7,16.4,10c0.2-6.5,0.1-12.9-0.1-19.4c-4-3-8.1-6-12.1-9
		c-1.2-1.1-1.6-2.5-1.2-4.1c1-1.9,2.5-2.6,4.6-2c3,2.1,5.9,4.2,8.8,6.5c0.1-3.8,0.1-7.5,0.2-11.3
		C235.7,161.8,236.4,161.1,237.3,160.7z"/>
</g>
</svg>
